<svg width="34" height="34" viewBox="0 0 34 34" fill="none" xmlns="http://www.w3.org/2000/svg">
<path d="M15.5835 24.0834H18.4168V18.4167H24.0835V15.5834H18.4168V9.91671H15.5835V15.5834H9.91683V18.4167H15.5835V24.0834ZM17.0002 31.1667C15.0404 31.1667 13.1988 30.8007 11.4752 30.0688C9.75155 29.3132 8.25225 28.298 6.97725 27.023C5.70225 25.748 4.68697 24.2487 3.93141 22.525C3.19947 20.8014 2.8335 18.9598 2.8335 17C2.8335 15.0403 3.19947 13.1987 3.93141 11.475C4.68697 9.75143 5.70225 8.25212 6.97725 6.97712C8.25225 5.70212 9.75155 4.69865 11.4752 3.96671C13.1988 3.21115 15.0404 2.83337 17.0002 2.83337C18.9599 2.83337 20.8016 3.21115 22.5252 3.96671C24.2488 4.69865 25.7481 5.70212 27.0231 6.97712C28.2981 8.25212 29.3016 9.75143 30.0335 11.475C30.7891 13.1987 31.1668 15.0403 31.1668 17C31.1668 18.9598 30.7891 20.8014 30.0335 22.525C29.3016 24.2487 28.2981 25.748 27.0231 27.023C25.7481 28.298 24.2488 29.3132 22.5252 30.0688C20.8016 30.8007 18.9599 31.1667 17.0002 31.1667ZM17.0002 28.3334C20.1641 28.3334 22.8439 27.2355 25.0397 25.0396C27.2356 22.8438 28.3335 20.1639 28.3335 17C28.3335 13.8362 27.2356 11.1563 25.0397 8.96046C22.8439 6.76462 20.1641 5.66671 17.0002 5.66671C13.8363 5.66671 11.1564 6.76462 8.96058 8.96046C6.76475 11.1563 5.66683 13.8362 5.66683 17C5.66683 20.1639 6.76475 22.8438 8.96058 25.0396C11.1564 27.2355 13.8363 28.3334 17.0002 28.3334Z" fill="#0692DF"/>
</svg>
