<svg width="24" height="24" viewBox="0 0 24 24" fill="none" xmlns="http://www.w3.org/2000/svg">
<path d="M19.5415 7.83713L12.5302 14.6614C12.3772 14.811 12.1714 14.8943 11.9574 14.8931C11.7433 14.892 11.5384 14.8064 11.3871 14.655L4.45212 7.75479C4.29987 7.6035 4.09429 7.51806 3.87965 7.51687C3.66502 7.51567 3.4585 7.59883 3.30457 7.74842C3.22878 7.82149 3.16838 7.909 3.12694 8.00578C3.08549 8.10256 3.06384 8.20666 3.06325 8.31194C3.06267 8.41722 3.08316 8.52155 3.12353 8.61879C3.1639 8.71602 3.22332 8.8042 3.2983 8.87811L10.2318 15.7783C10.6885 16.2318 11.3049 16.4878 11.9485 16.4914C12.592 16.4949 13.2113 16.2458 13.673 15.7974L20.6827 8.97469C20.7587 8.90159 20.8193 8.814 20.8609 8.71708C20.9025 8.62016 20.9242 8.51589 20.9248 8.41043C20.9254 8.30497 20.9048 8.20046 20.8643 8.10308C20.8238 8.00571 20.7642 7.91744 20.689 7.84351C20.5367 7.69222 20.3312 7.60678 20.1165 7.60558C19.9019 7.60439 19.6954 7.68754 19.5415 7.83713Z" fill="#0692DF"/>
</svg>
