<svg width="92" height="92" viewBox="0 0 92 92" fill="none" xmlns="http://www.w3.org/2000/svg">
<path d="M46 5.75C38.0393 5.75 30.2574 8.11062 23.6383 12.5333C17.0192 16.9561 11.8603 23.2423 8.81387 30.597C5.76744 37.9517 4.97036 46.0446 6.52341 53.8524C8.07647 61.6601 11.9099 68.832 17.539 74.461C23.168 80.0901 30.3399 83.9236 38.1476 85.4766C45.9554 87.0297 54.0483 86.2326 61.403 83.1861C68.7578 80.1397 75.0439 74.9808 79.4667 68.3617C83.8894 61.7426 86.25 53.9607 86.25 46C86.25 35.325 82.0094 25.0873 74.4611 17.539C66.9127 9.99061 56.675 5.75 46 5.75ZM40.25 62.0713L25.875 47.6963L30.4463 43.125L40.25 52.9287L61.5538 31.625L66.1423 36.1848L40.25 62.0713Z" fill="#86D81E"/>
</svg>
