<svg width="49" height="49" viewBox="0 0 49 49" fill="none" xmlns="http://www.w3.org/2000/svg">
<path d="M33.1883 39.8965L19.2927 25.7779C18.9879 25.4698 18.817 25.054 18.817 24.6207C18.817 24.1873 18.9879 23.7715 19.2927 23.4635L33.1853 9.34487C33.4899 9.03491 33.6606 8.61772 33.6606 8.18314C33.6606 7.74856 33.4899 7.33137 33.1853 7.02141C33.0365 6.86877 32.8586 6.74747 32.6622 6.66465C32.4658 6.58183 32.2548 6.53915 32.0416 6.53915C31.8285 6.53915 31.6175 6.58183 31.421 6.66465C31.2246 6.74747 31.0468 6.86877 30.898 7.02141L17.0054 21.137C16.0925 22.0667 15.5811 23.3177 15.5811 24.6207C15.5811 25.9237 16.0925 27.1746 17.0054 28.1044L30.898 42.2199C31.0468 42.373 31.2249 42.4947 31.4216 42.5778C31.6182 42.6609 31.8296 42.7037 32.0431 42.7037C32.2567 42.7037 32.468 42.6609 32.6647 42.5778C32.8614 42.4947 33.0394 42.373 33.1883 42.2199C33.4929 41.91 33.6636 41.4928 33.6636 41.0582C33.6636 40.6236 33.4929 40.2064 33.1883 39.8965Z" fill="#0692DF"/>
</svg>
